<?xml version="1.0" standalone="no"?>
<!DOCTYPE svg PUBLIC "-//W3C//DTD SVG 20010904//EN"
 "http://www.w3.org/TR/2001/REC-SVG-20010904/DTD/svg10.dtd">
<svg version="1.0" xmlns="http://www.w3.org/2000/svg"
 width="2500.000000pt" height="2500.000000pt" viewBox="0 0 2500.000000 2500.000000"
 preserveAspectRatio="xMidYMid meet">
<metadata>
Created by potrace 1.14, written by Peter Selinger 2001-2017
</metadata>
<g transform="translate(0.000000,2500.000000) scale(0.100000,-0.100000)"
fill="#000000" stroke="none">
<path d="M8099 24996 c-2 -2 -47 -6 -99 -10 -52 -4 -106 -8 -120 -10 -14 -3
-47 -7 -75 -10 -27 -3 -60 -8 -72 -10 -11 -3 -43 -8 -70 -11 -26 -4 -91 -16
-143 -27 -52 -11 -106 -22 -120 -24 -30 -6 -143 -36 -225 -59 -104 -29 -305
-100 -425 -149 -125 -52 -445 -209 -471 -232 -8 -8 -19 -14 -23 -14 -9 0 -238
-143 -291 -182 -266 -194 -395 -304 -577 -488 -191 -194 -285 -303 -414 -480
-53 -73 -174 -250 -174 -255 0 -3 -16 -29 -35 -59 -19 -30 -35 -57 -35 -60 0
-3 -17 -34 -38 -68 -45 -75 -112 -211 -197 -403 -101 -227 -215 -617 -261
-895 -4 -25 -8 -47 -9 -50 -1 -3 -5 -32 -9 -65 -5 -33 -10 -69 -11 -80 -5 -30
-13 -110 -21 -195 -15 -158 -8 -653 11 -772 2 -13 6 -48 10 -79 3 -31 7 -66
10 -77 2 -11 7 -42 11 -69 3 -26 8 -57 11 -68 2 -11 10 -51 17 -90 88 -442
271 -914 507 -1307 57 -94 225 -346 239 -358 3 -3 35 -43 71 -90 323 -417 786
-808 1269 -1073 66 -36 288 -147 295 -147 2 0 30 -12 62 -26 275 -126 780
-266 1078 -299 28 -3 61 -7 75 -10 14 -2 54 -7 90 -9 176 -14 225 -18 229 -22
2 -2 -27 -5 -65 -5 -38 -1 -78 -3 -89 -4 -11 -1 -51 -5 -90 -9 -78 -8 -151
-17 -177 -21 -9 -2 -38 -7 -65 -11 -26 -3 -57 -8 -68 -10 -11 -3 -36 -7 -55
-10 -19 -3 -51 -9 -70 -14 -19 -5 -47 -11 -61 -14 -99 -17 -474 -129 -574
-171 -16 -7 -82 -34 -145 -60 -674 -282 -1288 -769 -1732 -1375 -43 -58 -82
-110 -88 -117 -5 -7 -10 -15 -10 -18 0 -3 -15 -27 -33 -53 -18 -26 -57 -87
-86 -137 -29 -49 -56 -97 -62 -105 -38 -62 -184 -369 -226 -475 -93 -233 -191
-559 -223 -744 -35 -201 -47 -286 -55 -381 -3 -41 -9 -91 -12 -110 -9 -58 -10
-498 -2 -600 20 -244 36 -358 79 -570 88 -435 266 -893 495 -1275 11 -19 35
-59 53 -89 78 -131 294 -418 422 -561 19 -21 96 -101 171 -176 447 -448 987
-784 1589 -992 63 -21 129 -43 145 -47 17 -5 55 -16 85 -24 105 -30 306 -74
430 -94 118 -20 150 -24 262 -37 65 -8 162 -14 227 -14 81 -1 58 -8 -49 -16
-168 -11 -295 -23 -320 -30 -8 -2 -35 -7 -60 -9 -25 -3 -70 -10 -100 -17 -30
-6 -68 -13 -85 -15 -197 -33 -542 -139 -800 -246 -653 -272 -1275 -753 -1693
-1308 -39 -52 -76 -101 -82 -107 -30 -35 -187 -285 -248 -393 -76 -137 -212
-415 -212 -435 0 -3 -8 -25 -19 -48 -54 -121 -171 -493 -195 -617 -2 -14 -12
-58 -20 -97 -9 -40 -18 -85 -20 -100 -2 -16 -8 -48 -11 -73 -4 -25 -9 -52 -10
-60 -3 -16 -12 -90 -20 -154 -13 -114 -19 -264 -19 -466 0 -263 9 -384 45
-620 21 -135 41 -237 70 -355 11 -44 22 -89 25 -100 5 -30 107 -338 138 -418
157 -417 432 -868 756 -1242 71 -82 348 -354 435 -426 491 -412 1039 -697
1644 -854 74 -19 144 -37 155 -39 153 -29 248 -46 281 -51 22 -3 54 -7 70 -10
146 -22 282 -29 530 -30 219 0 402 8 477 20 12 2 46 6 73 10 134 17 251 37
375 67 47 11 92 21 100 23 57 12 90 21 205 56 72 22 146 46 165 54 19 7 72 27
116 44 202 75 435 189 644 314 83 50 330 214 340 226 3 3 23 20 45 36 180 134
442 378 602 561 452 518 767 1126 923 1779 28 116 64 307 74 390 14 115 19
152 22 168 15 81 18 801 18 4364 1 2240 4 4073 9 4073 4 0 7 -17 8 -37 0 -21
2 -45 4 -53 1 -8 5 -42 8 -75 8 -86 24 -192 47 -310 5 -27 11 -61 14 -75 2
-14 18 -81 35 -150 92 -366 236 -727 418 -1044 35 -60 63 -110 63 -113 0 -2 5
-9 10 -16 6 -7 38 -55 72 -107 493 -761 1277 -1365 2153 -1659 136 -46 383
-114 459 -127 17 -2 38 -7 46 -9 8 -2 31 -7 50 -10 19 -3 42 -8 50 -10 8 -2
40 -7 70 -10 30 -3 62 -8 70 -10 8 -2 38 -7 65 -10 28 -3 66 -7 85 -10 189
-24 621 -25 855 -1 55 6 142 17 161 20 19 4 78 13 139 22 68 10 237 48 340 75
561 150 1078 410 1530 768 39 31 72 58 75 61 3 3 41 36 85 75 137 119 354 342
451 464 10 13 24 28 29 35 6 6 40 49 76 96 270 352 492 767 632 1180 41 122
93 297 103 343 2 10 5 26 8 35 3 9 8 33 11 52 3 19 12 60 20 90 7 30 16 71 18
90 3 19 13 87 22 150 8 63 18 129 20 145 25 171 25 737 1 885 -3 14 -8 52 -11
85 -39 335 -140 717 -278 1055 -51 125 -168 367 -228 470 -18 30 -37 64 -43
75 -20 35 -67 109 -97 152 -16 23 -29 46 -29 52 0 6 -3 11 -7 11 -5 0 -21 21
-38 48 -37 58 -233 308 -300 382 -129 141 -335 339 -460 442 -415 339 -858
583 -1355 748 -113 37 -389 111 -465 124 -16 2 -68 12 -115 20 -47 9 -107 18
-135 22 -27 3 -61 7 -75 9 -96 15 -205 23 -314 24 -89 1 -64 8 54 15 98 6 125
9 240 22 55 6 175 23 212 29 76 14 238 47 273 56 22 6 47 12 55 14 81 16 413
123 452 145 10 6 23 10 28 10 6 0 30 9 53 19 23 10 71 31 107 46 198 83 590
303 725 407 6 5 62 48 126 96 333 249 638 565 882 912 37 52 70 100 75 106 9
13 16 25 98 159 126 206 275 519 351 738 56 164 133 433 149 525 3 15 11 59
19 97 17 84 42 257 50 340 3 33 8 80 11 105 3 25 7 151 8 280 3 283 -5 416
-39 653 -4 23 -9 58 -11 77 -4 29 -24 129 -48 246 -29 137 -104 387 -165 547
-272 713 -727 1334 -1324 1805 -159 126 -260 193 -557 372 -101 61 -436 214
-584 266 -187 67 -477 150 -596 170 -14 3 -61 11 -105 19 -103 18 -132 23
-235 35 -47 5 -105 13 -130 17 -46 7 -8933 16 -8941 9z m8287 -8333 c-5 -5
-41 -10 -126 -18 -108 -9 -139 -14 -295 -41 -195 -34 -183 -31 -334 -70 -1363
-349 -2466 -1378 -2912 -2718 -44 -131 -82 -263 -93 -322 -2 -11 -9 -37 -15
-59 -17 -67 -52 -253 -65 -355 -16 -118 -24 -198 -25 -237 -1 -13 -4 -23 -8
-23 -6 0 -10 3843 -4 3846 5 2 3880 -1 3877 -3z m57 0 c-7 -2 -21 -2 -30 0
-10 3 -4 5 12 5 17 0 24 -2 18 -5z m-3927 -3883 c-3 -42 -12 -46 -12 -5 0 19
3 35 7 35 4 0 6 -13 5 -30z m-9 -512 c-3 -8 -6 -5 -6 6 -1 11 2 17 5 13 3 -3
4 -12 1 -19z m8 -48 c1 -10 -2 -17 -6 -14 -4 2 -7 13 -6 24 2 23 10 17 12 -10z"/>
</g>
</svg>
